<svg xmlns="http://www.w3.org/2000/svg" width="32" height="32" viewBox="0 0 32 32">
  <rect width="32" height="32" fill="transparent" />
  <!-- Lambda symbol in bright green (#00ff00) -->
  <g>
    <!-- Pixelated lambda based on the provided image -->
    <rect x="12" y="4" width="2" height="2" fill="#00ff00" />
    <rect x="10" y="6" width="2" height="2" fill="#00ff00" />
    <rect x="14" y="6" width="2" height="2" fill="#00ff00" />
    <rect x="10" y="8" width="2" height="2" fill="#00ff00" />
    <rect x="14" y="8" width="2" height="2" fill="#00ff00" />
    <rect x="8" y="10" width="2" height="2" fill="#00ff00" />
    <rect x="16" y="10" width="2" height="2" fill="#00ff00" />
    <rect x="8" y="12" width="2" height="2" fill="#00ff00" />
    <rect x="16" y="12" width="2" height="2" fill="#00ff00" />
    <rect x="6" y="14" width="2" height="2" fill="#00ff00" />
    <rect x="18" y="14" width="2" height="2" fill="#00ff00" />
    <rect x="6" y="16" width="2" height="2" fill="#00ff00" />
    <rect x="18" y="16" width="2" height="2" fill="#00ff00" />
    <rect x="4" y="18" width="2" height="2" fill="#00ff00" />
    <rect x="20" y="18" width="2" height="2" fill="#00ff00" />
    <rect x="4" y="20" width="2" height="2" fill="#00ff00" />
    <rect x="20" y="20" width="2" height="2" fill="#00ff00" />
  </g>
</svg> 